<?xml version="1.0" encoding="utf-8"?>
<!-- Generator: Adobe Illustrator 16.0.0, SVG Export Plug-In . SVG Version: 6.00 Build 0)  -->
<!DOCTYPE svg PUBLIC "-//W3C//DTD SVG 1.1//EN" "http://www.w3.org/Graphics/SVG/1.1/DTD/svg11.dtd">
<svg version="1.1" id="Layer_1" xmlns="http://www.w3.org/2000/svg" xmlns:xlink="http://www.w3.org/1999/xlink" x="0px" y="0px"
	 width="28px" height="28px" viewBox="0 0 28 28" enable-background="new 0 0 28 28" xml:space="preserve">
<g>
	<g>
		<g>
			<path fill="#9B9B9B" d="M11.902,0.248c-3.197,0-4.946,0.498-4.946,0.498C2.991,2.61,4.398,7.279,4.398,7.279
				c0.906,2.842,4.732,2.992,5.688,2.992c3.184,0,4.919-2.879,4.919-2.879c0.205-0.383,0.326-0.479,0.396-0.479
				s0.088,0.094,0.088,0.094c0.088,2.711,1.457,3.289,1.457,3.289v8.123h0.264l1.346-0.136c-0.536,2.638-2.498,3.967-2.498,3.967
				c7.057-1.609,7.111-7.078,7.111-7.078s0.355-2.303,0.282-4.626c-0.067-2.161-0.568-4.356-0.568-4.356s-1.478-5.081-7.109-5.716
				C14.314,0.309,13.02,0.248,11.902,0.248L11.902,0.248z M19.495,14.899c-0.016,0-0.052-2.994,0-2.994
				c0.929,0,1.682,0.671,1.682,1.498C21.177,14.229,20.424,14.899,19.495,14.899L19.495,14.899z"/>
		</g>
	</g>
</g>
<g>
	<path fill="#9B9B9B" d="M13.443,22.647c-2.122,0-5.046-0.167-5.075-0.169l-0.227-0.011l0.033-0.226
		c0.092-0.637-0.745-3.195-1.105-4.212c-1.624-1.173-1.461-8.071-1.438-8.865l0.012-0.354L6.44,9.29
		c1.163,0.494,2.304,0.753,3.363,0.753c3.729,0,5.393-3.192,5.41-3.225l0.072-0.146l0.16,0.04c0.147,0.036,0.235,0.107,0.259,0.217
		l0.028,0.125l-0.044,0.045c-0.145,2.083,1.286,2.829,1.348,2.86l0.114,0.058l0.001,0.128v8.065h1.636l-0.026,0.232
		c-0.364,3.216-3.295,4.091-3.323,4.1C15.063,22.613,14.419,22.647,13.443,22.647z M8.593,22.076
		c0.696,0.037,3.063,0.155,4.851,0.155c0.936,0,1.572-0.03,1.897-0.092c0.09-0.027,2.54-0.768,2.977-3.514h-1.579v-8.36
		c-0.36-0.221-1.424-1.022-1.472-2.75c-0.672,0.957-2.428,2.943-5.463,2.943c-1.116,0-2.311-0.27-3.55-0.8L6.04,9.531
		c-0.044,2.331,0.115,7.456,1.311,8.187l0.062,0.038l0.024,0.07C7.559,18.166,8.55,20.975,8.593,22.076z"/>
</g>
<g>
	<path fill-rule="evenodd" clip-rule="evenodd" fill="#9B9B9B" d="M12.296,28.966c0,0-0.923-2.685-1.393-4.093
		c-0.248-0.746,0.034-2.237,0.034-2.237H9.754l-4.241,6.33H12.296z"/>
</g>
<g>
	<path fill-rule="evenodd" clip-rule="evenodd" fill="#9B9B9B" d="M14.228,28.966c0,0,1.165-2.413,1.612-3.828
		c0.415-1.309,0.158-2.868,0.158-2.868l0.887-0.479l3.976,7.174H14.228z"/>
</g>
<g>
	<path fill="#9B9B9B" d="M9.479,17.629c-0.478,0-1.597,0.447-2.369,1.083c-0.451,0.372-1.287,1.254-1.204,1.515
		c0.046,0.148,0.239,0.307,0.662,0.307c0.089,0,0.188-0.007,0.297-0.022c0.24-0.034,0.739-0.205,1.157-0.385
		c0.68-0.293,1.461-0.729,1.461-0.729s0.019-0.006,0.057-0.006c0.049,0,0.13,0.011,0.245,0.061c0.69,0.298,2.304,1.017,3.024,1.017
		c0.115,0,0.208-0.019,0.271-0.06c0.088-0.058,0.303-0.305-0.038-0.743c-0.393-0.505-0.72-0.846-1.378-1.24
		c-0.792-0.474-1.556-0.787-2.171-0.798C9.487,17.629,9.483,17.629,9.479,17.629L9.479,17.629z"/>
</g>
<line fill="none" stroke="#9B9B9B" stroke-width="0.5" stroke-miterlimit="10" x1="11.626" y1="12.169" x2="15.138" y2="12.169"/>
<polyline fill="none" stroke="#9B9B9B" stroke-width="0.5" stroke-miterlimit="10" points="5.383,12.169 9.238,12.169 9.224,17.35 
	"/>
</svg>
